<svg width="20" height="15" viewBox="0 0 20 15" xmlns="http://www.w3.org/2000/svg">
  <path fill="#2E42A5" d="M0 0h20v15H0z"/>
  <path d="M0 7.09v1.585L.741 9h.745L11 1.423V0H9.018L5.85 2.665 2.54 4.996 0 7.091z" fill="#F7FCFF"/>
  <path d="M0 8.119V9h.95L11 .395V0H9.677L0 8.119z" fill="#F50100"/>
  <path d="M2.23 0l3.167 2.665 3.31 2.331L11 6.886V9H9.658L0 1.227V0h2.23z" fill="#F7FCFF"/>
  <path d="M.828 0l5.584 4.377 1.628.58L11 7.468V9h-.193L6.134 4.977l-1.49-.483L0 .767V0h.828z" fill="#F50100"/>
  <path d="M6.938 0H4.063v3.063H0v2.874h4.063V9h2.875V5.937H11V3.063H6.937V0z" fill="#F7FCFF"/>
  <path fill-rule="evenodd" clip-rule="evenodd" d="M6 0H5v4H0v1h5v4h1V5h5V4H6V0z" fill="#F50100"/>
  <path d="M14.52 2.963l-.547.505.054-.742-.736-.112.614-.42-.37-.646.711.218.273-.693.274.693.712-.218-.371.645.614.42-.736.113.054.742-.547-.505zM12.693 8.802l.547-.505.547.505-.054-.742.736-.113-.615-.42.371-.646-.712.218-.273-.692-.273.692-.712-.218.37.646-.613.42.736.113-.055.742zM5.182 11.923L5.1 13.036l.82-.758.82.758-.081-1.113 1.103-.17-.921-.63.556-.968-1.067.327-.41-1.039-.41 1.039-1.068-.327.556.968-.92.63 1.103.17zM17.174 6.135l.547-.505.546.505-.054-.742.736-.113-.614-.42.37-.646-.711.218-.273-.692-.274.692-.712-.218.371.646-.614.42.736.113-.054.742zM15.16 13.297l-.547.505.055-.742-.736-.113.614-.42-.371-.646.712.218.273-.692.273.692.712-.218-.37.646.613.42-.735.113.054.742-.547-.505zM16.951 8.813l-.106.618.556-.292.555.292-.106-.618.45-.438-.622-.09-.277-.563-.278.562-.621.09.45.439z" fill="#F7FCFF"/>
</svg>
